<?xml version="1.0" encoding="utf-8"?>
<!-- Generator: Adobe Illustrator 25.3.1, SVG Export Plug-In . SVG Version: 6.00 Build 0)  -->
<svg version="1.1" id="Layer_1" xmlns="http://www.w3.org/2000/svg" xmlns:xlink="http://www.w3.org/1999/xlink" x="0px" y="0px"
	 viewBox="0 0 24 24" style="enable-background:new 0 0 24 24;" xml:space="preserve">
<style type="text/css">
	.st0{fill-rule:evenodd;clip-rule:evenodd;fill:#005897;}
	.st1{fill-rule:evenodd;clip-rule:evenodd;fill:#5D5E5E;}
	.st2{fill-rule:evenodd;clip-rule:evenodd;fill:#005897;stroke:#005897;stroke-width:0.25;stroke-miterlimit:10;}
	.st3{fill:#005897;}
	.st4{fill:#005897;stroke:#005897;stroke-width:0.25;stroke-miterlimit:10;}
	.st5{fill:#FBFBFB;}
	.st6{fill:#F6FAFD;}
	.st7{fill:#010201;}
	.st8{fill:#38ADE1;}
	.st9{fill:#005897;stroke:#FFFFFF;stroke-width:0.1;stroke-miterlimit:10;}
	.st10{fill:#005897;stroke:#005897;stroke-width:0.1;stroke-miterlimit:10;}
	.st11{fill:#005897;stroke:#005897;stroke-width:0.12;stroke-miterlimit:10;}
	.st12{fill:#174884;}
	.st13{fill:#9CBDD4;}
	.st14{fill:#FFFFFF;}
</style>
<path class="st3" d="M1.05,11.3c0-2.39,0-4.79,0-7.18c0-1.56,0.51-2.05,2.07-2.05c0.45,0,0.89-0.01,1.34,0
	c0.69,0.01,1.46,0.17,1.3-0.98c-0.04-0.3,0.26-0.43,0.53-0.43C6.64,0.66,6.85,0.9,6.8,1.22c-0.13,0.9,0.42,0.86,1.04,0.85
	c2.01-0.02,4.02-0.02,6.03,0c0.5,0,0.89,0,0.81-0.69C14.63,1,14.77,0.64,15.23,0.65c0.45,0.01,0.58,0.36,0.53,0.75
	c-0.08,0.58,0.2,0.7,0.71,0.67c0.67-0.04,1.34-0.02,2.01-0.01c1.27,0.02,1.79,0.54,1.8,1.82c0.01,2.49,0.02,4.98-0.01,7.47
	c-0.01,0.67,0.16,1.07,0.76,1.46c1.89,1.25,2.77,3.1,2.49,5.33c-0.3,2.42-1.65,4.15-4.06,4.8c-2.33,0.64-4.29-0.1-5.77-1.99
	c-0.33-0.43-0.67-0.49-1.13-0.49c-3.13,0.01-6.26,0-9.38,0c-1.65,0-2.14-0.5-2.14-2.19C1.05,15.96,1.05,13.63,1.05,11.3z
	 M10.68,6.21c-2.58,0-5.17,0.01-7.75-0.01C2.37,6.2,2.16,6.32,2.16,6.94c0.03,3.83,0.03,7.65,0,11.48c0,0.71,0.23,0.94,0.94,0.94
	c2.97-0.03,5.93-0.04,8.9,0c0.7,0.01,0.74-0.23,0.63-0.82c-0.66-3.73,2.1-6.85,5.89-6.65c0.6,0.03,0.67-0.14,0.66-0.65
	c-0.03-1.43-0.04-2.87,0-4.3C19.21,6.33,19,6.2,18.43,6.2C15.85,6.23,13.26,6.21,10.68,6.21z M13.63,17.5
	c-0.01,2.47,1.94,4.52,4.33,4.55c2.45,0.03,4.46-2,4.47-4.51c0.01-2.48-1.93-4.51-4.34-4.53C15.62,12.98,13.65,14.97,13.63,17.5z
	 M10.68,5.09c2.55,0,5.11-0.02,7.66,0.02c0.66,0.01,0.91-0.15,0.86-0.84c-0.04-0.6,0.05-1.18-0.86-1.1c-0.63,0.06-1.28,0.03-1.91,0
	c-0.47-0.02-0.73,0.09-0.66,0.63c0.05,0.38-0.04,0.74-0.5,0.77c-0.47,0.03-0.62-0.32-0.57-0.7c0.08-0.67-0.28-0.7-0.8-0.7
	c-2.04,0.02-4.09,0.02-6.13,0C7.14,3.16,6.68,3.17,6.8,4C6.85,4.3,6.65,4.55,6.3,4.58C6.01,4.6,5.73,4.43,5.77,4.16
	C5.93,3,5.15,3.18,4.47,3.18c-0.51,0-1.02,0.03-1.53,0C2.04,3.12,2.2,3.73,2.17,4.26C2.13,4.83,2.22,5.12,2.92,5.11
	C5.51,5.07,8.09,5.09,10.68,5.09z"/>
<path class="st3" d="M4.43,15.01c0-1.23,0-1.24,1.58-1.22c1.29,0.01,1.08-0.24,1.09,1.53c0.01,1.13,0,1.14-1.58,1.13
	C4.22,16.43,4.46,16.65,4.43,15.01z"/>
<path class="st3" d="M10.53,16.45c-1.33,0-1.33,0-1.33-1.47c0-1.19,0-1.13,1.62-1.21c0.92-0.05,1.11,0.27,1.08,1.12
	C11.83,16.45,11.88,16.45,10.53,16.45z"/>
<path class="st3" d="M5.87,8.93c1.24,0,1.24,0,1.24,1.47c0,1.13,0,1.13-1.49,1.13c-1.19,0-1.19,0-1.18-1.52
	C4.43,8.93,4.43,8.93,5.87,8.93z"/>
<path class="st3" d="M16.91,10.23c0,1.3,0,1.3-1.58,1.3c-1.11,0-1.11,0-1.11-1.58c0-1.02,0-1.02,1.79-1.02
	C16.91,8.93,16.91,8.93,16.91,10.23z"/>
<path class="st3" d="M10.65,8.93c1.35,0,1.35,0,1.35,1.35c0,1.25,0,1.24-1.56,1.25c-0.65,0-1.21,0.12-1.13-0.93
	C9.43,8.94,9.34,8.93,10.65,8.93z"/>
<path class="st3" d="M18.62,16.63c0.53-0.06,0.98-0.38,1.46-0.59c0.3-0.14,0.57-0.13,0.72,0.19c0.16,0.34-0.04,0.52-0.33,0.65
	c-0.66,0.3-1.32,0.62-1.98,0.94c-0.6,0.3-0.91,0.15-0.89-0.55c0.03-0.99,0.06-1.97,0.08-2.96c0.01-0.35,0.11-0.67,0.53-0.62
	c0.34,0.04,0.43,0.31,0.42,0.64C18.61,15.08,18.62,15.84,18.62,16.63z"/>
</svg>
