<?xml version="1.0" encoding="utf-8"?>
<!-- Generator: Adobe Illustrator 25.3.1, SVG Export Plug-In . SVG Version: 6.00 Build 0)  -->
<svg version="1.1" id="Layer_1" xmlns="http://www.w3.org/2000/svg" xmlns:xlink="http://www.w3.org/1999/xlink" x="0px" y="0px"
	 viewBox="0 0 24 24" style="enable-background:new 0 0 24 24;" xml:space="preserve">
<style type="text/css">
	.st0{fill-rule:evenodd;clip-rule:evenodd;fill:#005897;}
	.st1{fill-rule:evenodd;clip-rule:evenodd;fill:#5D5E5E;}
	.st2{fill-rule:evenodd;clip-rule:evenodd;fill:#005897;stroke:#005897;stroke-width:0.25;stroke-miterlimit:10;}
	.st3{fill:#005897;}
	.st4{fill:#005897;stroke:#005897;stroke-width:0.25;stroke-miterlimit:10;}
	.st5{fill:#FBFBFB;}
	.st6{fill:#F6FAFD;}
	.st7{fill:#010201;}
	.st8{fill:#38ADE1;}
	.st9{fill:#005897;stroke:#FFFFFF;stroke-width:0.1;stroke-miterlimit:10;}
	.st10{fill:#005897;stroke:#005897;stroke-width:0.1;stroke-miterlimit:10;}
	.st11{fill:#005897;stroke:#005897;stroke-width:0.12;stroke-miterlimit:10;}
	.st12{fill:#174884;}
	.st13{fill:#9CBDD4;}
	.st14{fill:#FFFFFF;}
</style>
<g>
	<path class="st4" d="M22.39,16.1c-0.23,0.43-0.58,0.73-0.98,1.01c-1.56,1.1-3.12,2.21-4.66,3.34c-0.86,0.63-1.75,0.84-2.8,0.59
		c-1.68-0.41-3.38-0.75-5.07-1.12c-0.16-0.03-0.32-0.06-0.47-0.08c-0.33-0.04-0.54-0.01-0.44,0.45c0.13,0.64-0.25,1.1-0.92,1.22
		c-1.85,0.32-3.7,0.64-5.55,0.96c-0.06,0.01-0.13,0.02-0.15,0.09c-0.06,0-0.13-0.01-0.19,0c-0.41,0.08-0.57-0.08-0.48-0.48
		c0.16-0.1,0.33-0.17,0.53-0.2c0.89-0.14,1.77-0.31,2.66-0.45c0.25-0.04,0.31-0.12,0.26-0.37c-0.36-2.05-0.7-4.11-1.06-6.16
		c-0.16-0.93-0.17-0.9-1.09-0.77c-0.42,0.06-0.86,0.31-1.3,0.03c0-0.13,0-0.26,0-0.39c0.96-0.32,1.97-0.39,2.96-0.58
		c0.63-0.12,1.27-0.21,1.9-0.33c0.59-0.11,1.02,0.08,1.24,0.63c0.12,0.3,0.25,0.27,0.5,0.19c0.85-0.27,1.7-0.57,2.62-0.54
		c0.7,0.02,1.37,0.16,2.01,0.44c0.95,0.42,1.91,0.84,2.87,1.24c0.43,0.18,0.81,0.42,0.96,0.88c0.09,0.27,0.25,0.17,0.42,0.12
		c1.38-0.42,2.76-0.84,4.14-1.26c1.12-0.34,1.52-0.2,2.12,0.75C22.39,15.58,22.39,15.84,22.39,16.1z M9.8,13.79
		c-0.85-0.05-1.64,0.36-2.48,0.55c-0.31,0.07-0.33,0.2-0.28,0.47c0.24,1.29,0.47,2.59,0.67,3.89c0.06,0.37,0.11,0.6,0.56,0.5
		c0.15-0.03,0.32,0.02,0.47,0.05c1.86,0.4,3.73,0.79,5.59,1.22c0.7,0.16,1.3,0.01,1.86-0.4c1.68-1.21,3.36-2.41,5.05-3.62
		c0.47-0.34,0.62-0.68,0.43-1.04c-0.24-0.45-0.63-0.41-1.05-0.28c-1.52,0.47-3.03,0.93-4.55,1.38c-0.17,0.05-0.3,0.13-0.4,0.3
		c-0.38,0.66-0.88,0.88-1.61,0.73c-0.52-0.11-1.03-0.24-1.55-0.35c-0.23-0.05-0.48-0.11-0.41-0.41c0.07-0.31,0.34-0.24,0.56-0.19
		c0.49,0.1,0.97,0.21,1.46,0.31c0.52,0.12,0.9-0.05,1.02-0.44c0.13-0.41-0.04-0.76-0.54-0.98c-1.08-0.48-2.18-0.94-3.26-1.41
		C10.86,13.87,10.36,13.78,9.8,13.79z M5.74,13.48c-0.55,0.1-1.1,0.23-1.66,0.27c-0.47,0.04-0.57,0.19-0.49,0.65
		c0.4,2.16,0.77,4.33,1.13,6.5c0.04,0.27,0.11,0.36,0.39,0.31c0.61-0.12,1.23-0.21,1.85-0.32c0.3-0.05,0.44-0.24,0.39-0.55
		c-0.07-0.39-0.14-0.79-0.21-1.19c-0.3-1.72-0.59-3.44-0.89-5.17C6.2,13.71,6.12,13.44,5.74,13.48z"/>
	<path class="st4" d="M22.39,7.41c-0.3,0.78-0.5,1.6-0.99,2.31c-1.41,2.04-4.08,2.96-6.42,2.17c-2.46-0.83-4.09-3.18-3.95-5.67
		c0.15-2.56,1.96-4.73,4.4-5.28c0.13-0.03,0.29,0.03,0.4-0.1c0.61,0,1.22,0,1.83,0c0.05,0.03,0.1,0.07,0.15,0.09
		c2.18,0.51,3.62,1.82,4.33,3.95c0.09,0.26,0.08,0.56,0.25,0.79C22.39,6.25,22.39,6.83,22.39,7.41z M21.72,6.53
		c0-2.81-2.2-5.01-5.01-5.01c-2.79,0-5.02,2.22-5.02,5.01c0,2.77,2.25,5.02,5.03,5.02C19.5,11.56,21.72,9.32,21.72,6.53z"/>
	<path class="st4" d="M17.38,4.84c-0.25-0.63-0.64-0.91-1.21-0.92c-0.4-0.01-0.8,0-1.21,0c-0.22,0-0.39-0.09-0.38-0.33
		c0.01-0.22,0.18-0.3,0.37-0.3c1.19,0,2.38,0,3.57,0c0.2,0,0.37,0.1,0.37,0.3c0,0.23-0.17,0.33-0.39,0.33c-0.27,0-0.54,0-0.85,0
		c0.11,0.3,0.29,0.51,0.34,0.78c0.03,0.17,0.19,0.14,0.32,0.14c0.26,0,0.59-0.03,0.58,0.33c-0.01,0.35-0.34,0.32-0.6,0.31
		c-0.13,0-0.26,0-0.31,0.16c-0.33,1.08-1.13,1.45-2.21,1.39c0.49,0.51,0.96,1,1.43,1.48c0.2,0.21,0.41,0.4,0.62,0.61
		c0.16,0.15,0.23,0.33,0.07,0.5c-0.17,0.19-0.35,0.1-0.5-0.05c-0.67-0.65-1.34-1.3-2.01-1.95c-0.22-0.21-0.44-0.42-0.66-0.63
		c-0.11-0.11-0.18-0.23-0.12-0.39c0.06-0.16,0.2-0.2,0.35-0.2c0.39,0,0.77,0,1.16,0c0.46-0.01,0.85-0.17,1.11-0.57
		c0.15-0.23,0.18-0.37-0.18-0.36c-0.64,0.02-1.29,0-1.93,0.01c-0.25,0-0.53-0.01-0.52-0.34c0.01-0.31,0.28-0.29,0.51-0.29
		C15.83,4.84,16.57,4.84,17.38,4.84z"/>
</g>
</svg>
