<?xml version="1.0" encoding="utf-8"?>
<!-- Generator: Adobe Illustrator 25.3.1, SVG Export Plug-In . SVG Version: 6.00 Build 0)  -->
<svg version="1.1" id="Layer_1" xmlns="http://www.w3.org/2000/svg" xmlns:xlink="http://www.w3.org/1999/xlink" x="0px" y="0px"
	 viewBox="0 0 24 24" style="enable-background:new 0 0 24 24;" xml:space="preserve">
<style type="text/css">
	.st0{fill-rule:evenodd;clip-rule:evenodd;fill:#005897;}
	.st1{fill-rule:evenodd;clip-rule:evenodd;fill:#5D5E5E;}
	.st2{fill-rule:evenodd;clip-rule:evenodd;fill:#005897;stroke:#005897;stroke-width:0.25;stroke-miterlimit:10;}
	.st3{fill:#005897;}
	.st4{fill:#005897;stroke:#005897;stroke-width:0.25;stroke-miterlimit:10;}
	.st5{fill:#FBFBFB;}
	.st6{fill:#F6FAFD;}
	.st7{fill:#010201;}
	.st8{fill:#38ADE1;}
	.st9{fill:#005897;stroke:#FFFFFF;stroke-width:0.1;stroke-miterlimit:10;}
	.st10{fill:#005897;stroke:#005897;stroke-width:0.1;stroke-miterlimit:10;}
	.st11{fill:#005897;stroke:#005897;stroke-width:0.12;stroke-miterlimit:10;}
	.st12{fill:#174884;}
	.st13{fill:#9CBDD4;}
	.st14{fill:#FFFFFF;}
</style>
<g>
	<path class="st4" d="M0.61,18.2c0.44-0.01,0.88-0.05,1.32-0.01c0.42,0.03,0.56-0.08,0.55-0.53c-0.02-2.56-0.01-5.13-0.01-7.69
		c0-0.92,0.34-1.67,1.03-2.27c0.18-0.15,0.4-0.35,0.61-0.08c0.18,0.23-0.02,0.39-0.2,0.54C3.64,8.36,3.46,8.62,3.3,8.92
		C3.11,9.27,3.08,9.46,3.61,9.45c1.2-0.01,2.41-0.07,3.62,0.03c0.02,0.05,0.05,0.08,0.1,0.04c0.3,0.46,0.02,0.52-0.36,0.52
		c-1.14,0-2.28,0.02-3.41-0.01c-0.43-0.01-0.51,0.13-0.51,0.53c0.02,2.37,0.02,4.73,0,7.1c-0.01,0.46,0.15,0.53,0.56,0.53
		c5.49-0.01,10.97-0.01,16.46,0c0.43,0,0.5-0.13,0.5-0.52c-0.02-2.38-0.02-4.77,0-7.16c0-0.4-0.11-0.49-0.49-0.48
		c-1.08,0.03-2.16,0.01-3.25,0.01c-0.38,0-0.65-0.08-0.35-0.53c0.05,0.05,0.08,0.02,0.1-0.03c1.13-0.1,2.27-0.02,3.41-0.04
		c0.53-0.01,0.58-0.08,0.32-0.56c-0.42-0.77-1.06-1.21-1.94-1.25c-0.81-0.04-1.62,0-2.42-0.01c-0.24,0-0.37,0.05-0.39,0.32
		c-0.09,0.9-0.61,1.54-1.25,2.13c-0.46,0.43-0.44,0.67,0.06,1.02c0.12,0.08,0.27,0.16,0.33,0.28c0.35,0.65,0.98,0.73,1.6,0.87
		c0.88,0.19,1.72,0.49,2.48,1c0.66,0.43,1.05,1,0.99,1.83c-0.03,0.44-0.01,0.88-0.01,1.32c0,0.23,0,0.48-0.3,0.49
		c-0.31,0.01-0.32-0.24-0.32-0.47c0-0.51-0.02-1.03,0-1.54c0.02-0.38-0.13-0.68-0.41-0.91c-0.59-0.49-1.27-0.77-2.09-0.98
		c0.36,0.67,0.48,1.3,0.3,1.96c-0.05,0.19,0.11,0.3,0.16,0.45c0.12,0.43,0,0.77-0.41,0.96c-0.42,0.2-0.77,0.05-0.99-0.32
		c-0.23-0.39-0.11-0.75,0.25-1.01c0.47-0.35,0.59-0.79,0.33-1.38c-0.3-0.68-1.07-0.99-1.75-0.71c-0.66,0.27-1.04,1.12-0.83,1.8
		c0.07,0.22,0.26,0.17,0.38,0.26c0.35,0.26,0.51,0.59,0.3,1c-0.2,0.39-0.53,0.55-0.97,0.38c-0.41-0.16-0.65-0.61-0.43-0.98
		c0.18-0.32,0.12-0.58,0.03-0.92c-0.28,0.31-0.52,0.65-0.89,0.82c-0.21,0.1-0.17,0.25-0.17,0.41c0,0.4,0.02,0.81-0.01,1.21
		c-0.02,0.36-0.16,0.39-0.53,0.18c0.01-0.01,0.03-0.03,0.03-0.04c-0.02-0.02-0.04-0.05-0.06-0.07c0.05-0.95-0.08-1.77-0.95-2.4
		c-0.51-0.38-0.72-1.09-0.99-1.69c-0.07-0.15-0.03-0.44-0.29-0.38c-0.31,0.07-0.71-0.05-0.92,0.24c-0.2,0.27-0.19,0.63-0.18,0.96
		c0.01,0.28,0.24,0.16,0.38,0.17c0.73,0.06,1.27,0.62,1.29,1.32c0.01,0.65-0.5,1.26-1.14,1.35c-0.75,0.1-1.39-0.34-1.55-1.07
		c-0.06-0.24,0-0.47,0.06-0.7c0.08-0.33,0.47-0.51,0.37-0.93c-0.08-0.31,0-0.65,0.11-1.04c-0.96,0.22-1.81,0.5-2.55,1.05
		c-0.38,0.28-0.59,0.63-0.56,1.12c0.03,0.51,0.02,1.03,0,1.54c-0.02,0.36-0.19,0.51-0.52,0.24c0.11-0.12,0.11-0.23-0.04-0.32
		c-0.05-0.29-0.05-0.58,0-0.88c0.12-0.07,0.12-0.15,0-0.22c-0.05-0.22-0.05-0.44,0-0.66c0.07-0.03,0.09-0.07,0.01-0.11
		c0-0.59,0.39-0.93,0.8-1.24c0.75-0.56,1.62-0.85,2.51-1.07c0.4-0.1,0.74-0.22,1-0.58c0.2-0.28,0.51-0.47,0.82-0.64
		c0.41-0.22,0.36-0.49,0.09-0.78C8.87,9.97,8.58,9.71,8.32,9.43C8.01,9.08,7.78,8.68,7.76,8.2C7.75,7.72,7.52,7.56,7.04,7.61
		c-0.38,0.04-0.77,0.02-1.15,0c-0.25-0.01-0.63,0.12-0.63-0.3c0-0.38,0.37-0.27,0.6-0.28c0.42-0.01,0.84-0.02,1.27,0
		C7.49,7.06,7.63,7,7.58,6.56C7.45,5.55,7.48,4.54,7.88,3.59c0.51-1.22,1.37-2.1,2.65-2.46c2.63-0.73,5.07,1.09,5.27,3.94
		c0.04,0.53,0.07,1.06-0.07,1.59c-0.07,0.29,0.01,0.39,0.32,0.39c0.7-0.02,1.39-0.01,2.09,0c1.81,0.01,3.02,1.22,3.03,3.05
		c0,2.53,0.01,5.06-0.01,7.6c0,0.42,0.11,0.54,0.52,0.51c0.53-0.04,1.06,0,1.6-0.01c0.23,0,0.42,0.07,0.43,0.32
		c0.01,0.79,0,1.58-0.01,2.36c0,0.08-0.06,0.17-0.18,0.18c-0.05-0.06-0.08-0.04-0.11,0.02c-0.16,0.01-0.33,0.03-0.49,0.03
		c-7.33,0-14.66,0-21.99,0c-0.18,0-0.36-0.03-0.54-0.05c0-0.57,0-1.13,0-1.7C0.4,18.94,0.32,18.54,0.61,18.2z M15.13,6.64
		c0.02-0.2,0.06-0.42,0.08-0.64c0.01-0.24,0.01-0.48,0-0.71c-0.04-1.99-1.5-3.63-3.32-3.73c-1.88-0.1-3.43,1.29-3.7,3.32
		C8.02,6.04,8.24,7.18,8.4,8.32c0.03,0.25,0.17,0.44,0.32,0.63c0.6,0.74,1.33,1.31,2.18,1.72c0.51,0.25,1.02,0.24,1.53-0.02
		c0.75-0.38,1.37-0.9,1.94-1.51C14.97,8.47,15,7.66,15.07,6.9c-0.98,0.17-1.83,0-2.61-0.51c-0.23-0.15-0.39-0.17-0.63-0.05
		c-0.92,0.43-1.91,0.64-2.93,0.65c-0.24,0-0.59,0.08-0.59-0.3c0-0.38,0.35-0.29,0.59-0.3c1.16-0.04,2.23-0.35,3.25-0.89
		c0.72-0.38,1.31-0.82,1.08-1.77c-0.01-0.03,0-0.07,0-0.11c0.01-0.18,0.05-0.34,0.27-0.34c0.23-0.01,0.31,0.14,0.32,0.35
		c0.06,0.86,0.09,1.7-0.9,2.11c-0.07,0.03-0.11,0.09-0.09,0.14C13.5,6.5,14.44,6.16,15.13,6.64z M11.96,20.49c3.34,0,6.68,0,10.02,0
		c1.11,0,1.09,0,1.12-1.1c0.02-0.49-0.1-0.64-0.62-0.64c-6.82,0.02-13.65,0.01-20.47,0.01c-1.2,0-1.18,0-1.21,1.19
		C0.8,20.38,0.9,20.5,1.34,20.5C4.88,20.48,8.42,20.49,11.96,20.49z M10,10.87c-0.34,1.57,0.32,2.68,1.25,3.72
		c0.23,0.25,0.49,0.27,0.78,0.05c0.98-0.75,1.61-2.59,1.27-3.81C12.22,11.68,11.11,11.63,10,10.87z M8.38,14.47
		c-0.39,0-0.73,0.33-0.73,0.73c-0.01,0.4,0.31,0.75,0.7,0.76c0.41,0.02,0.77-0.34,0.76-0.76C9.1,14.81,8.77,14.47,8.38,14.47z"/>
	<path class="st4" d="M0.61,18.2c-0.29,0.34-0.22,0.75-0.22,1.14c0,0.57,0,1.13,0,1.7c-0.04-0.03-0.12-0.05-0.12-0.09
		c-0.15-0.85-0.08-1.7-0.04-2.55C0.24,18.21,0.42,18.15,0.61,18.2z"/>
	<path class="st4" d="M3.91,16.42c0.15,0.09,0.15,0.2,0.04,0.32C3.87,16.64,3.87,16.53,3.91,16.42z"/>
	<path class="st4" d="M3.91,15.32c0.12,0.07,0.12,0.15,0,0.22C3.91,15.47,3.91,15.39,3.91,15.32z"/>
	<path class="st4" d="M7.33,9.52c-0.06,0.04-0.08,0.02-0.1-0.04C7.26,9.49,7.29,9.51,7.33,9.52z"/>
	<path class="st4" d="M16.58,9.48c-0.02,0.05-0.05,0.08-0.1,0.03C16.52,9.5,16.55,9.49,16.58,9.48z"/>
	<path class="st4" d="M3.92,14.55c0.08,0.04,0.06,0.08-0.01,0.11C3.91,14.62,3.92,14.59,3.92,14.55z"/>
	<path class="st4" d="M11.4,16.98c0.02,0.02,0.04,0.04,0.06,0.07c0,0-0.02,0.02-0.03,0.04C11.42,17.04,11.41,17.01,11.4,16.98z"/>
	<path class="st4" d="M23.41,21.05c0.03-0.06,0.06-0.08,0.11-0.02C23.48,21.04,23.45,21.05,23.41,21.05z"/>
	<path class="st4" d="M8.78,15.13c0,0.27-0.12,0.42-0.38,0.44c-0.25,0.01-0.42-0.12-0.43-0.38c-0.01-0.25,0.11-0.41,0.38-0.43
		C8.61,14.75,8.75,14.89,8.78,15.13z"/>
</g>
<path class="st4" d="M3.37,7.82c0,0,0.99-0.91,2.49-0.78l0.03,0.58c0,0-1.27-0.17-2.1,0.64C2.95,9.07,3.37,7.82,3.37,7.82z"/>
</svg>
