<?xml version="1.0" encoding="utf-8"?>
<!-- Generator: Adobe Illustrator 25.3.1, SVG Export Plug-In . SVG Version: 6.00 Build 0)  -->
<svg version="1.1" id="Layer_1" xmlns="http://www.w3.org/2000/svg" xmlns:xlink="http://www.w3.org/1999/xlink" x="0px" y="0px"
	 viewBox="0 0 24 24" style="enable-background:new 0 0 24 24;" xml:space="preserve">
<style type="text/css">
	.st0{fill-rule:evenodd;clip-rule:evenodd;fill:#005897;}
	.st1{fill-rule:evenodd;clip-rule:evenodd;fill:#5D5E5E;}
	.st2{fill-rule:evenodd;clip-rule:evenodd;fill:#005897;stroke:#005897;stroke-width:0.25;stroke-miterlimit:10;}
	.st3{fill:#005897;}
	.st4{fill:#005897;stroke:#005897;stroke-width:0.25;stroke-miterlimit:10;}
	.st5{fill:#FBFBFB;}
	.st6{fill:#F6FAFD;}
	.st7{fill:#010201;}
	.st8{fill:#38ADE1;}
	.st9{fill:#005897;stroke:#FFFFFF;stroke-width:0.1;stroke-miterlimit:10;}
	.st10{fill:#005897;stroke:#005897;stroke-width:0.1;stroke-miterlimit:10;}
	.st11{fill:#005897;stroke:#005897;stroke-width:0.12;stroke-miterlimit:10;}
	.st12{fill:#174884;}
	.st13{fill:#9CBDD4;}
	.st14{fill:#FFFFFF;}
</style>
<g>
	<path class="st3" d="M11.93,21.62c-3.73,0-7.47,0.01-11.2-0.01c-0.22,0-0.67,0.24-0.64-0.26c0.02-0.31-0.37-0.86,0.36-0.94
		c0.38-0.04,0.21-0.38,0.21-0.58c0.01-2.7,0.03-5.41-0.01-8.11c-0.01-0.57,0.15-0.74,0.71-0.72c1.05,0.04,2.11-0.01,3.16,0.03
		c0.46,0.02,0.6-0.1,0.6-0.58c-0.03-1.99,0-3.97-0.02-5.96c0-0.43,0.09-0.58,0.55-0.56C6.53,3.96,7.42,3.9,8.3,3.95
		c0.51,0.03,0.63-0.17,0.56-0.6c-0.01-0.05,0-0.1,0-0.14c0-1.68,0-1.68,1.65-1.68c1.36,0,2.73,0.02,4.09-0.01
		c0.45-0.01,0.57,0.12,0.57,0.56c0,0.61-0.29,1.42,0.13,1.77c0.36,0.3,1.14,0.08,1.74,0.09c0.6,0.01,1.39-0.21,1.73,0.09
		c0.4,0.35,0.12,1.17,0.13,1.78c0.02,1.51,0.03,3.02-0.01,4.52c-0.01,0.53,0.08,0.75,0.69,0.71c1-0.06,2.01,0.01,3.01-0.04
		c0.58-0.03,0.77,0.12,0.76,0.74c-0.04,2.7-0.02,5.41-0.02,8.11c0,0.28-0.07,0.51,0.38,0.6c0.48,0.09,0.19,0.6,0.22,0.91
		c0.04,0.41-0.33,0.25-0.52,0.25C19.59,21.62,15.76,21.62,11.93,21.62z M17.73,12.71C17.73,12.71,17.73,12.71,17.73,12.71
		c0-2.32-0.01-4.64,0.01-6.97c0.01-0.5-0.12-0.64-0.63-0.64c-3.38,0.02-6.75,0.02-10.13,0c-0.52,0-0.69,0.1-0.69,0.67
		c0.03,4.69,0.03,9.38,0,14.08c0,0.56,0.22,0.61,0.67,0.59c0.44-0.02,0.82,0.09,0.8-0.61c-0.05-1.89,0-3.78-0.03-5.67
		c-0.01-0.48,0.13-0.6,0.6-0.59c2.47,0.02,4.93,0.02,7.4,0c0.5-0.01,0.58,0.17,0.57,0.61c-0.02,1.89,0.02,3.78-0.02,5.67
		c-0.01,0.57,0.21,0.62,0.67,0.59c0.42-0.03,0.82,0.12,0.8-0.61C17.69,17.45,17.73,15.08,17.73,12.71z M18.9,16.29
		c0,1.22,0.01,2.44-0.01,3.66c-0.01,0.36,0.08,0.5,0.47,0.49c0.74-0.03,1.48-0.03,2.22,0c0.45,0.02,0.57-0.13,0.57-0.57
		c-0.02-2.37-0.02-4.73,0-7.1c0-0.45-0.16-0.57-0.59-0.55c-0.72,0.03-1.44,0.04-2.15-0.01c-0.47-0.03-0.54,0.15-0.53,0.57
		C18.92,13.95,18.9,15.12,18.9,16.29z M5.11,16.3c0-1.2-0.01-2.39,0.01-3.59c0.01-0.37-0.09-0.5-0.47-0.49
		c-0.76,0.03-1.53,0.03-2.29,0c-0.34-0.01-0.45,0.08-0.45,0.43c0.01,2.44,0.01,4.88,0,7.32c0,0.33,0.1,0.46,0.45,0.45
		c0.76-0.03,1.53-0.03,2.29,0c0.38,0.02,0.48-0.09,0.47-0.47C5.09,18.74,5.11,17.52,5.11,16.3z M11.42,17.59
		c0-0.77-0.02-1.53,0.01-2.3c0.02-0.42-0.07-0.62-0.54-0.57c-0.47,0.04-0.96,0.03-1.44,0c-0.37-0.02-0.5,0.08-0.5,0.47
		c0.02,1.58,0.02,3.16,0,4.74c0,0.35,0.05,0.53,0.47,0.49c0.47-0.04,0.96-0.04,1.43,0c0.43,0.04,0.59-0.08,0.57-0.54
		C11.4,19.12,11.42,18.36,11.42,17.59z M12.6,17.55c0,0.77,0.02,1.53-0.01,2.3c-0.02,0.41,0.05,0.63,0.53,0.58
		c0.45-0.04,0.91-0.03,1.36,0c0.43,0.03,0.59-0.09,0.58-0.55c-0.03-1.56-0.02-3.11,0-4.67c0-0.36-0.07-0.52-0.47-0.5
		c-0.5,0.03-1.01,0.04-1.51,0c-0.43-0.03-0.51,0.15-0.5,0.53C12.62,16.02,12.6,16.79,12.6,17.55z M12.05,2.74
		c-0.5,0-1,0.04-1.5-0.01c-0.65-0.06-0.4,0.4-0.46,0.7c-0.08,0.41,0.08,0.53,0.49,0.51c0.95-0.03,1.9-0.02,2.85,0
		c0.39,0.01,0.51-0.08,0.53-0.51c0.03-0.58-0.14-0.77-0.7-0.7C12.86,2.78,12.45,2.74,12.05,2.74z"/>
	<path class="st3" d="M11.42,10.4c0.21-0.72-0.26-0.73-0.82-0.71C9.85,9.72,9.67,9.45,9.84,8.72c0.04-0.18,0.13-0.23,0.28-0.23
		c0.17,0,0.34-0.01,0.5,0.01c0.66,0.11,0.88-0.17,0.81-0.82c-0.03-0.32-0.25-0.8,0.5-0.79c0.61,0.01,0.74,0.24,0.66,0.73
		c-0.12,0.73,0.16,0.96,0.89,0.89c0.65-0.07,0.93,0.38,0.68,1c-0.15,0.36-0.51,0.18-0.74,0.16c-0.6-0.05-0.93,0.08-0.83,0.79
		c0.06,0.41,0.16,0.86-0.61,0.84C11.2,11.29,11.46,10.83,11.42,10.4z"/>
</g>
</svg>
